<svg width="24" height="21" viewBox="0 0 24 21" fill="none" xmlns="http://www.w3.org/2000/svg">
<path d="M9.68228 9.6823C12.356 9.6823 14.5234 7.51484 14.5234 4.84115C14.5234 2.16746 12.356 0 9.68228 0C7.00858 0 4.84113 2.16746 4.84113 4.84115C4.84113 7.51484 7.00858 9.6823 9.68228 9.6823Z" fill="#F3F3F3"/>
<path d="M10.4932 10.9168C10.2269 10.9047 9.96067 10.8926 9.6823 10.8926C6.7534 10.8926 4.01815 11.7035 1.6823 13.0953C0.617247 13.7247 0 14.9107 0 16.1573V19.3646H11.2073C10.2511 17.997 9.6823 16.3268 9.6823 14.5234C9.6823 13.2284 9.98487 12.0181 10.4932 10.9168Z" fill="#F3F3F3"/>
<path d="M22.6929 14.5235C22.6929 14.2572 22.6566 14.0151 22.6203 13.761L24 12.5386L22.7897 10.4448L21.0348 11.0378C20.6475 10.711 20.2118 10.4569 19.7277 10.2753L19.3646 8.47202H16.944L16.5809 10.2753C16.0968 10.4569 15.6611 10.711 15.2738 11.0378L13.5189 10.4448L12.3086 12.5386L13.6883 13.761C13.652 14.0151 13.6157 14.2572 13.6157 14.5235C13.6157 14.7897 13.652 15.0318 13.6883 15.2859L12.3086 16.5083L13.5189 18.6021L15.2738 18.0091C15.6611 18.3359 16.0968 18.59 16.5809 18.7716L16.944 20.5749H19.3646L19.7277 18.7716C20.2118 18.59 20.6475 18.3359 21.0348 18.0091L22.7897 18.6021L24 16.5083L22.6203 15.2859C22.6566 15.0318 22.6929 14.7897 22.6929 14.5235ZM18.1543 16.944C16.823 16.944 15.7337 15.8548 15.7337 14.5235C15.7337 13.1921 16.823 12.1029 18.1543 12.1029C19.4856 12.1029 20.5749 13.1921 20.5749 14.5235C20.5749 15.8548 19.4856 16.944 18.1543 16.944Z" fill="#F3F3F3"/>
</svg>
