<svg width="20" height="21" viewBox="0 0 20 21" fill="none" xmlns="http://www.w3.org/2000/svg">
<path d="M10 0.57489C4.48 0.57489 0 5.05489 0 10.5749C0 16.0949 4.48 20.5749 10 20.5749C15.52 20.5749 20 16.0949 20 10.5749C20 5.05489 15.52 0.57489 10 0.57489ZM11 17.5749H9V15.5749H11V17.5749ZM13.07 9.82489L12.17 10.7449C11.45 11.4749 11 12.0749 11 13.5749H9V13.0749C9 11.9749 9.45 10.9749 10.17 10.2449L11.41 8.98489C11.78 8.62489 12 8.12489 12 7.57489C12 6.47489 11.1 5.57489 10 5.57489C8.9 5.57489 8 6.47489 8 7.57489H6C6 5.36489 7.79 3.57489 10 3.57489C12.21 3.57489 14 5.36489 14 7.57489C14 8.45489 13.64 9.25489 13.07 9.82489Z" fill="#F3F3F3"/>
</svg>
